<svg width="41" height="13" viewBox="0 0 41 13" fill="none" xmlns="http://www.w3.org/2000/svg">
<path d="M6.968 5.44V6.976H0.392V5.44H6.968ZM9.28738 3.216C9.35138 2.224 9.73004 1.45067 10.4234 0.896C11.1274 0.341333 12.0234 0.0639992 13.1114 0.0639992C13.858 0.0639992 14.5034 0.197333 15.0474 0.464C15.5914 0.730666 16.002 1.09333 16.2794 1.552C16.5567 2.01067 16.6954 2.528 16.6954 3.104C16.6954 3.76533 16.5194 4.33067 16.1674 4.8C15.8154 5.26933 15.394 5.584 14.9034 5.744V5.808C15.5327 6 16.0234 6.352 16.3754 6.864C16.7274 7.36533 16.9034 8.01067 16.9034 8.8C16.9034 9.42933 16.7594 9.98933 16.4714 10.48C16.1834 10.9707 15.7567 11.36 15.1914 11.648C14.626 11.9253 13.9487 12.064 13.1594 12.064C12.0074 12.064 11.058 11.7707 10.3114 11.184C9.57538 10.5867 9.18071 9.73333 9.12738 8.624H10.8874C10.93 9.18933 11.1487 9.65333 11.5434 10.016C11.938 10.368 12.4714 10.544 13.1434 10.544C13.794 10.544 14.2954 10.368 14.6474 10.016C14.9994 9.65333 15.1754 9.18933 15.1754 8.624C15.1754 7.87733 14.9354 7.34933 14.4554 7.04C13.986 6.72 13.2607 6.56 12.2794 6.56H11.8634V5.056H12.2954C13.1594 5.04533 13.8154 4.90133 14.2634 4.624C14.722 4.34667 14.9514 3.90933 14.9514 3.312C14.9514 2.8 14.786 2.39467 14.4554 2.096C14.1247 1.78667 13.6554 1.632 13.0474 1.632C12.45 1.632 11.986 1.78667 11.6554 2.096C11.3247 2.39467 11.1274 2.768 11.0634 3.216H9.28738ZM18.8194 6.016C18.8194 4.17067 19.1287 2.73067 19.7474 1.696C20.3767 0.650666 21.454 0.127999 22.9794 0.127999C24.5047 0.127999 25.5767 0.650666 26.1954 1.696C26.8247 2.73067 27.1394 4.17067 27.1394 6.016C27.1394 7.88267 26.8247 9.344 26.1954 10.4C25.5767 11.4453 24.5047 11.968 22.9794 11.968C21.454 11.968 20.3767 11.4453 19.7474 10.4C19.1287 9.344 18.8194 7.88267 18.8194 6.016ZM25.3474 6.016C25.3474 5.152 25.2887 4.42133 25.1714 3.824C25.0647 3.22667 24.8407 2.74133 24.4994 2.368C24.158 1.984 23.6514 1.792 22.9794 1.792C22.3074 1.792 21.8007 1.984 21.4594 2.368C21.118 2.74133 20.8887 3.22667 20.7714 3.824C20.6647 4.42133 20.6114 5.152 20.6114 6.016C20.6114 6.912 20.6647 7.664 20.7714 8.272C20.878 8.88 21.102 9.37067 21.4434 9.744C21.7954 10.1173 22.3074 10.304 22.9794 10.304C23.6514 10.304 24.158 10.1173 24.4994 9.744C24.8514 9.37067 25.0807 8.88 25.1874 8.272C25.294 7.664 25.3474 6.912 25.3474 6.016ZM28.7814 3.152C28.7814 2.37333 29.0054 1.76533 29.4534 1.328C29.912 0.879999 30.4987 0.655999 31.2134 0.655999C31.928 0.655999 32.5094 0.879999 32.9574 1.328C33.416 1.76533 33.6454 2.37333 33.6454 3.152C33.6454 3.93067 33.416 4.544 32.9574 4.992C32.5094 5.44 31.928 5.664 31.2134 5.664C30.4987 5.664 29.912 5.44 29.4534 4.992C29.0054 4.544 28.7814 3.93067 28.7814 3.152ZM38.5414 0.863999L32.1574 12H30.3654L36.7494 0.863999H38.5414ZM31.2134 1.76C30.5414 1.76 30.2054 2.224 30.2054 3.152C30.2054 4.09067 30.5414 4.56 31.2134 4.56C31.5334 4.56 31.7787 4.448 31.9494 4.224C32.1307 3.98933 32.2214 3.632 32.2214 3.152C32.2214 2.224 31.8854 1.76 31.2134 1.76ZM35.2934 9.696C35.2934 8.91733 35.5174 8.30933 35.9654 7.872C36.424 7.424 37.0107 7.2 37.7254 7.2C38.4294 7.2 39.0054 7.424 39.4534 7.872C39.912 8.30933 40.1414 8.91733 40.1414 9.696C40.1414 10.4747 39.912 11.088 39.4534 11.536C39.0054 11.984 38.4294 12.208 37.7254 12.208C37.0107 12.208 36.424 11.984 35.9654 11.536C35.5174 11.088 35.2934 10.4747 35.2934 9.696ZM37.7094 8.304C37.0374 8.304 36.7014 8.768 36.7014 9.696C36.7014 10.624 37.0374 11.088 37.7094 11.088C38.3814 11.088 38.7174 10.624 38.7174 9.696C38.7174 8.768 38.3814 8.304 37.7094 8.304Z" fill="white"/>
</svg>
